<svg xmlns="http://www.w3.org/2000/svg" width="20.492" height="16.651" viewBox="0 0 20.492 16.651"><path d="M1669.712,8538.207a8.218,8.218,0,0,1-2.414.665,4.2,4.2,0,0,0,1.844-2.329,8.292,8.292,0,0,1-2.661,1.027,4.21,4.21,0,0,0-7.28,2.871,3.956,3.956,0,0,0,.114.959,11.9,11.9,0,0,1-8.668-4.391,4.186,4.186,0,0,0,1.3,5.607,4.164,4.164,0,0,1-1.9-.522v.057a4.194,4.194,0,0,0,3.365,4.116,4.117,4.117,0,0,1-1.892.075,4.189,4.189,0,0,0,3.925,2.919,8.47,8.47,0,0,1-5.227,1.8,9.016,9.016,0,0,1-1-.066,11.956,11.956,0,0,0,18.41-10.065c0-.189-.01-.37-.019-.551A8.3,8.3,0,0,0,1669.712,8538.207Z" transform="translate(-1649.22 -8536.24)" fill="#e63946"/></svg>