<svg xmlns="http://www.w3.org/2000/svg" width="16.628" height="16.652" viewBox="0 0 16.628 16.652"><g transform="translate(0 0)"><path d="M17.218,4.39A8.278,8.278,0,0,0,3.079,10.212a7.842,7.842,0,0,0,1.109,4.119L3,18.608l4.4-1.149a8.04,8.04,0,0,0,3.961.99A8.238,8.238,0,0,0,17.218,4.39ZM11.357,17.063a6.772,6.772,0,0,1-3.763-1.109l-2.614.713.713-2.535a7.089,7.089,0,0,1-1.228-3.921,6.891,6.891,0,1,1,6.891,6.852Z" transform="translate(-3 -1.956)" fill="#e63946"/><path d="M21.458,18.736a11.565,11.565,0,0,0-1.426-.673c-.158-.079-.317-.119-.436.079s-.554.673-.673.832a.317.317,0,0,1-.436.04,6.02,6.02,0,0,1-1.663-1.03,5.941,5.941,0,0,1-1.149-1.426.277.277,0,0,1,.079-.4l.317-.4a1.386,1.386,0,0,0,.2-.317.356.356,0,0,0,0-.356c-.079-.119-.475-1.109-.634-1.545s-.356-.356-.475-.356h-.4a.673.673,0,0,0-.554.277,2.178,2.178,0,0,0-.713,1.7,4.119,4.119,0,0,0,.832,2.139A9.425,9.425,0,0,0,17.854,20.4a6.5,6.5,0,0,0,1.188.436,2.535,2.535,0,0,0,1.307.079,2,2,0,0,0,1.386-.951,1.623,1.623,0,0,0,.119-.99A.832.832,0,0,0,21.458,18.736Z" transform="translate(-9.339 -8.738)" fill="#e63946"/></g></svg>